<svg xmlns="http://www.w3.org/2000/svg" viewBox="0 0 48 48"><defs><style>.cls-1{fill:'';}.cls-2{fill:none;}</style></defs><title>资源 2</title><g id="图层_2" data-name="图层 2"><g id="图层_1-2" data-name="图层 1"><path class="cls-1" d="M39.61,6H37V3.39A3.4,3.4,0,0,0,33.61,0H8.39A3.4,3.4,0,0,0,5,3.39V38.61A3.4,3.4,0,0,0,8.39,42H11v2.61A3.4,3.4,0,0,0,14.39,48H39.61A3.4,3.4,0,0,0,43,44.61V9.39A3.4,3.4,0,0,0,39.61,6ZM11,9.39V38H9V4H33V6H14.39A3.4,3.4,0,0,0,11,9.39ZM39,44H15V10H39Z"/><path class="cls-1" d="M33.5,26.5h-5v-5a1.5,1.5,0,1,0-3,0v5h-5a1.5,1.5,0,0,0,0,3h5v5a1.5,1.5,0,1,0,3,0v-5h5a1.5,1.5,0,0,0,0-3Z"/><rect class="cls-2" width="48" height="48"/></g></g></svg>