<svg xmlns="http://www.w3.org/2000/svg" viewBox="0 0 48 48"><defs><style>.cls-1{fill:'';}.cls-2{fill:none;}</style></defs><title>资源 4</title><g id="图层_2" data-name="图层 2"><g id="图层_1-2" data-name="图层 1"><path class="cls-1" d="M46,7H29V1.4A1.4,1.4,0,0,0,27.6,0H19.4A1.4,1.4,0,0,0,18,1.4V7H2a2,2,0,0,0,0,4H46a2,2,0,0,0,0-4Z"/><path class="cls-1" d="M39,8H9a2.05,2.05,0,0,0-2,2V46a2.05,2.05,0,0,0,2,2H39a2.05,2.05,0,0,0,2-2V10a2.05,2.05,0,0,0-2-2ZM31,43.9V12.1h5.9V43.9Zm-10,0V12.1h6V43.9Zm-9.9,0V12.1H17V43.9Z"/><rect class="cls-2" width="48" height="48"/></g></g></svg>