<?xml version="1.0" standalone="no"?><!DOCTYPE svg PUBLIC "-//W3C//DTD SVG 1.1//EN" "http://www.w3.org/Graphics/SVG/1.1/DTD/svg11.dtd"><svg t="1597721464515" viewBox="0 0 1024 1024" version="1.1" xmlns="http://www.w3.org/2000/svg" p-id="3100" xmlns:xlink="http://www.w3.org/1999/xlink" width="200" height="200"><defs><style type="text/css"></style></defs><path d="M341.333333 341.333333v170.666667h213.333334V341.333333H341.333333M42.666667 42.666667h170.666666v42.666666h597.333334V42.666667h170.666666v170.666666h-42.666666v597.333334h42.666666v170.666666h-170.666666v-42.666666H213.333333v42.666666H42.666667v-170.666666h42.666666V213.333333H42.666667V42.666667m170.666666 768v42.666666h597.333334v-42.666666h42.666666V213.333333h-42.666666V170.666667H213.333333v42.666666H170.666667v597.333334h42.666666M256 256h384v170.666667h128v341.333333H341.333333v-170.666667H256V256m384 341.333333h-213.333333v85.333334h256v-170.666667h-42.666667v85.333333z" fill="" p-id="3101"></path></svg>