<?xml version="1.0" standalone="no"?><!DOCTYPE svg PUBLIC "-//W3C//DTD SVG 1.1//EN" "http://www.w3.org/Graphics/SVG/1.1/DTD/svg11.dtd"><svg t="1582860381313" class="icon" viewBox="0 0 1024 1024" version="1.1" xmlns="http://www.w3.org/2000/svg" p-id="5246" xmlns:xlink="http://www.w3.org/1999/xlink" width="128" height="128"><defs><style type="text/css"></style></defs><path d="M967.11111111 704.51200003v105.01688887c0 5.00622222-1.59288889 9.32977778-4.89244446 12.51555554-3.29955554 3.18577777-7.50933333 4.89244444-12.5155555 4.89244446H827.05066668v122.53866666c0 5.00622222-1.59288889 9.32977778-4.89244441 12.51555553-3.29955554 3.29955554-7.50933333 4.89244444-12.51555561 4.89244447h-105.01688887c-5.00622222 0-9.32977778-1.59288889-12.51555558-4.89244447-3.29955554-3.29955554-4.89244444-7.50933333-4.89244442-12.51555556V826.9368889H214.35733332c-5.00622222 0-9.32977778-1.59288889-12.51555559-4.89244446-3.29955554-3.29955554-4.89244444-7.50933333-4.89244441-12.51555554V337.00977778H74.41066667c-5.00622222 0-9.32977778-1.59288889-12.51555556-4.89244444-3.29955554-3.29955554-4.89244444-7.50933333-4.89244445-12.51555554v-105.01688891c0-5.00622222 1.59288889-9.32977778 4.89244445-12.51555555 3.29955554-3.29955554 7.50933333-4.89244444 12.51555556-4.89244447h122.53866667V74.41066667c0-5.00622222 1.59288889-9.32977778 4.89244445-12.51555556 3.29955554-3.29955554 7.50933333-4.89244444 12.51555555-4.89244445h105.01688887c5.00622222 0 9.32977778 1.59288889 12.51555558 4.89244445 3.29955554 3.29955554 4.89244444 7.50933333 4.89244442 12.51555556v122.53866667h465.46488893l134.59911108-135.05422223c3.64088889-3.29955554 7.85066668-4.89244444 12.51555556-4.89244445s8.98844446 1.59288889 12.51555555 4.89244445c3.29955554 3.64088889 4.89244444 7.85066668 4.89244446 12.51555556s-1.59288889 8.98844446-4.89244446 12.51555555L826.9368889 221.52533334v465.46488888h122.53866666c5.00622222 0 9.32977778 1.59288889 12.51555557 4.89244444 3.52711114 3.41333332 5.12000001 7.50933333 5.11999998 12.62933337z m-630.21511112-41.98400004l325.51822223-325.40444447H336.89599999v325.40444447z m24.57600002 24.46222223h325.40444447v-325.40444444l-325.40444447 325.40444444z" fill="" p-id="5247"></path></svg>