<?xml version="1.0" standalone="no"?><!DOCTYPE svg PUBLIC "-//W3C//DTD SVG 1.1//EN" "http://www.w3.org/Graphics/SVG/1.1/DTD/svg11.dtd"><svg t="1585899803719" viewBox="0 0 1033 1024" version="1.1" xmlns="http://www.w3.org/2000/svg" p-id="4451" xmlns:xlink="http://www.w3.org/1999/xlink" width="201.7578125" height="200"><defs><style type="text/css"></style></defs><path d="M301.714286 411.428571m-82.285715 0a82.285714 82.285714 0 1 0 164.571429 0 82.285714 82.285714 0 1 0-164.571429 0Z" p-id="4452"></path><path d="M896 128V0h-73.142857v128h-128v73.142857h128v128h73.142857v-128h128V128h-128z" p-id="4453"></path><path d="M822.857143 899.291429L569.051429 660.48a36.571429 36.571429 0 0 0-45.165715-5.12L75.337143 917.394286A38.217143 38.217143 0 0 1 73.142857 905.142857V237.714286a36.571429 36.571429 0 0 1 36.571429-36.571429h512V128H73.142857a73.142857 73.142857 0 0 0-73.142857 73.142857v740.571429a73.142857 73.142857 0 0 0 73.142857 73.142857h749.714286a73.142857 73.142857 0 0 0 73.142857-73.142857V402.285714h-73.142857z" p-id="4454"></path></svg>