<svg t="1585898348755" class="icon" viewBox="0 0 1024 1024" version="1.1" xmlns="http://www.w3.org/2000/svg" p-id="2688" width="200" height="200"><path d="M887.68 0H136.32A72.533 72.533 0 0 0 64 72.32v879.36a72.533 72.533 0 0 0 72.32 72.32h751.36A72.533 72.533 0 0 0 960 951.68V72.32A72.533 72.533 0 0 0 887.68 0z m-13.013 938.667H149.333v-85.334H192c64 0 193.493-2.56 251.733-128 12.8-27.733 26.027-56.32 41.387-85.333l5.547-10.667c39.68-76.586 128-181.12 384-183.466z m0-557.227C576 384 478.08 514.133 433.707 599.68l-5.334 10.453c-16 30.72-29.226 60.374-42.666 88.32-44.374 90.88-151.04 90.88-193.707 90.88h-42.667v-704h725.334z" p-id="2689"></path><path d="M277.333 320a64 64 0 1 0 128 0 64 64 0 1 0-128 0z" p-id="2690"></path></svg>