<?xml version="1.0" standalone="no"?><!DOCTYPE svg PUBLIC "-//W3C//DTD SVG 1.1//EN" "http://www.w3.org/Graphics/SVG/1.1/DTD/svg11.dtd"><svg t="1597721471764" viewBox="0 0 1024 1024" version="1.1" xmlns="http://www.w3.org/2000/svg" p-id="3229" xmlns:xlink="http://www.w3.org/1999/xlink" width="200" height="200"><defs><style type="text/css"></style></defs><path d="M26.54814777 26.54814777L220.72888889 26.54814777 220.72888889 75.09333333 560.54518557 75.09333333 560.54518557 26.54814777 754.72592555 26.54814777 754.72592555 220.72888889 706.18074112 220.72888889 706.18074112 366.36444445 803.27111111 366.36444445 803.27111111 317.81925888 997.45185223 317.81925888 997.45185223 512 948.90666667 512 948.90666667 803.27111111 997.45185223 803.27111111 997.45185223 997.45185223 803.27111111 997.45185223 803.27111111 948.90666667 512 948.90666667 512 997.45185223 317.81925888 997.45185223 317.81925888 803.27111111 366.36444445 803.27111111 366.36444445 706.18074112 220.72888889 706.18074112 220.72888889 754.72592555 26.54814777 754.72592555 26.54814777 560.54518557 75.09333333 560.54518557 75.09333333 220.72888889 26.54814777 220.72888889 26.54814777 26.54814777M803.27111111 512L803.27111111 463.45481443 706.18074112 463.45481443 706.18074112 560.54518557 754.72592555 560.54518557 754.72592555 754.72592555 560.54518557 754.72592555 560.54518557 706.18074112 463.45481443 706.18074112 463.45481443 803.27111111 512 803.27111111 512 851.81629667 803.27111111 851.81629667 803.27111111 803.27111111 851.81629667 803.27111111 851.81629667 512 803.27111111 512M560.54518557 220.72888889L560.54518557 172.18370333 220.72888889 172.18370333 220.72888889 220.72888889 172.18370333 220.72888889 172.18370333 560.54518557 220.72888889 560.54518557 220.72888889 609.09036999 366.36444445 609.09036999 366.36444445 512 317.81925888 512 317.81925888 317.81925888 512 317.81925888 512 366.36444445 609.09036999 366.36444445 609.09036999 220.72888889 560.54518557 220.72888889M512 512L463.45481443 512 463.45481443 609.09036999 560.54518557 609.09036999 560.54518557 560.54518557 609.09036999 560.54518557 609.09036999 463.45481443 512 463.45481443 512 512Z" p-id="3230"></path></svg>