<?xml version="1.0" standalone="no"?><!DOCTYPE svg PUBLIC "-//W3C//DTD SVG 1.1//EN" "http://www.w3.org/Graphics/SVG/1.1/DTD/svg11.dtd"><svg t="1565147275774" viewBox="0 0 1024 1024" version="1.1" xmlns="http://www.w3.org/2000/svg" p-id="13881" xmlns:xlink="http://www.w3.org/1999/xlink" width="64" height="64"><defs><style type="text/css"></style></defs><path d="M874.72832 380.16l64-31.146667a37.12 37.12 0 0 0 0-66.56L507.581653 59.946667a60.373333 60.373333 0 0 0-55.253333 0L21.394987 282.453333a37.12 37.12 0 0 0 0 66.56l384 188.586667a313.386667 313.386667 0 0 0-11.093334 192L64.061653 540.8a42.666667 42.666667 0 0 0-42.666666 74.026667l426.666666 243.626666a42.666667 42.666667 0 0 0 16.213334 4.906667A320 320 0 1 0 874.72832 380.16zM725.394987 608V832a10.666667 10.666667 0 0 1-10.666667 10.666667h-21.333333a10.666667 10.666667 0 0 1-10.666667-10.666667V608h-64l85.333333-149.333333 85.333334 149.333333z m42.666666-270.933333a320 320 0 0 0-321.92 125.44L144.48832 314.666667l335.573333-172.8 334.72 172.586666z" p-id="13882"></path></svg>